<?xml version="1.0" encoding="UTF-8" standalone="no"?>
<svg width="36px" height="36px" viewBox="0 0 36 36" version="1.1" xmlns="http://www.w3.org/2000/svg" xmlns:xlink="http://www.w3.org/1999/xlink" xmlns:sketch="http://www.bohemiancoding.com/sketch/ns">
    <!-- Generator: Sketch 3.3.3 (12072) - http://www.bohemiancoding.com/sketch -->
    <title>Shape</title>
    <desc>Created with Sketch.</desc>
    <defs>
        <path d="M119.064531,35.528268 C128.474248,35.528268 136.10233,27.9001853 136.10233,18.4904684 C136.10233,9.08075155 128.474248,1.45266885 119.064531,1.45266885 C109.654814,1.45266885 102.026731,9.08075155 102.026731,18.4904684 C102.026731,27.9001853 109.654814,35.528268 119.064531,35.528268 Z M114.026653,16.1162624 L114.06301,16.0772772 C114.209149,15.9736634 114.280436,15.8125248 114.253703,15.6432426 C113.892099,13.5311139 114.129307,12.6505693 114.20897,12.4298267 C114.840396,10.5472772 116.820218,9.67591584 117.209267,9.52222772 C117.292139,9.4905198 117.444693,9.44529703 117.599564,9.42242574 L117.645545,9.4125495 L117.964376,9.39574257 L117.966871,9.41497525 L118.040297,9.40821782 C118.106594,9.4014604 118.169149,9.39210396 118.247564,9.3765099 L118.317782,9.36160891 C118.380337,9.36230198 119.151485,9.45707921 120.296356,9.79876238 L121.092277,10.0654208 C122.547782,10.4833416 123.218059,11.2616584 123.341921,11.4177723 C124.507287,12.7020297 124.195941,14.6403713 123.906337,15.6815347 C123.873723,15.8043812 123.89297,15.9308663 123.96497,16.0356931 L124.031267,16.1150495 C124.116099,16.2266337 124.191307,16.6570297 123.938059,17.5717079 C123.890297,17.8489356 123.78497,18.0745297 123.628139,18.2271782 C123.569505,18.2892079 123.529941,18.3678713 123.514614,18.4560644 C123.121109,20.7021287 121.050752,23.2141584 118.869366,23.2141584 C117.018396,23.2141584 114.905267,20.9024257 114.525129,18.4579703 C114.510515,18.3661386 114.471485,18.2862624 114.405901,18.217302 C114.247109,18.0585891 114.14695,17.8284901 114.085644,17.4880198 C113.90297,16.8460644 113.883901,16.3307673 114.026653,16.1162624 L114.026653,16.1162624 Z M109.871327,24.9404199 C109.951703,24.8385119 110.398851,24.3154554 111.304554,23.9709602 C112.100475,23.7265944 114.067644,23.0747746 115.143545,22.2963257 C115.19398,22.2689368 115.243703,22.2173603 115.284515,22.1746764 C115.38396,22.0677886 115.536515,21.9054116 115.716337,21.7373435 L115.816495,21.6425495 L115.918614,21.7380549 C116.865842,22.6297942 117.914297,23.1187035 118.869723,23.1187035 C119.874337,23.1187035 120.910673,22.684572 121.867525,21.8629055 L121.942733,21.7979903 L122.145545,21.896697 C122.326614,22.0628088 122.641168,22.2906345 122.787129,22.3607073 L122.973366,22.4510551 L122.954297,22.4715078 L123.037168,22.5218393 C123.213248,22.6281936 123.405188,22.7311686 123.631525,22.8426805 C123.859287,22.9426321 124.049267,23.0171512 124.247089,23.0813551 C124.412832,23.1348879 125.298218,23.432075 126.305327,23.8967968 L126.497267,23.9540644 C127.481386,24.3302169 127.918911,24.8527399 127.962931,24.9075176 C129.130792,26.6362185 129.579723,29.8613483 129.746178,31.658877 C126.693663,34.1329468 122.853248,35.495099 118.928891,35.495099 C115.001861,35.495099 111.160911,34.1324132 108.109644,31.6583435 C108.273069,29.8663281 108.717545,26.6508022 109.871327,24.9404199 L109.871327,24.9404199 Z" id="path-1"></path>
    </defs>
    <g id="Page-2" stroke="none" stroke-width="1" fill="none" fill-rule="evenodd" sketch:type="MSPage">
        <g id="ff-ablage-final-open" sketch:type="MSArtboardGroup" transform="translate(-169.000000, -864.173828)" stroke="#9CA299">
            <g id="footer" sketch:type="MSLayerGroup" transform="translate(-1.000000, 855.000000)">
                <g id="pikto" transform="translate(69.000000, 9.000000)">
                    <g id="Shape">
                        <use stroke-width="1.2" sketch:type="MSShapeGroup" xlink:href="#path-1"></use>
                        <use stroke-width="1.3" xlink:href="#path-1"></use>
                    </g>
                </g>
            </g>
        </g>
    </g>
</svg>