<?xml version="1.0" encoding="UTF-8" standalone="no"?>
<svg width="36px" height="37px" viewBox="0 0 36 37" version="1.1" xmlns="http://www.w3.org/2000/svg" xmlns:xlink="http://www.w3.org/1999/xlink" xmlns:sketch="http://www.bohemiancoding.com/sketch/ns">
    <!-- Generator: Sketch 3.3.3 (12072) - http://www.bohemiancoding.com/sketch -->
    <title>scan + Oval 11 Copy</title>
    <desc>Created with Sketch.</desc>
    <defs></defs>
    <g id="Page-2" stroke="none" stroke-width="1" fill="none" fill-rule="evenodd" sketch:type="MSPage">
        <g id="ff-ablage-final" sketch:type="MSArtboardGroup" transform="translate(-270.000000, -864.173828)" stroke="#9CA299">
            <g id="footer" sketch:type="MSLayerGroup" transform="translate(-1.000000, 855.000000)">
                <g id="pikto" transform="translate(69.000000, 9.000000)" sketch:type="MSShapeGroup">
                    <g id="scan-+-Oval-11-Copy" transform="translate(203.026731, 1.452669)">
                        <g id="scan" transform="translate(0.389801, 0.000000)" fill="#9EA49B">
                            <g id="fingerprint1" transform="translate(8.518900, 8.518900)">
                                <g id="Group">
                                    <path d="M0.639111192,0.587504576 L3.79278128,0.587504576 L3.79278128,0.0843016125 L0.135908228,0.0843016125 L0.135908228,3.7411268 L0.639111192,3.7411268 L0.639111192,0.587504576 Z" id="Shape"></path>
                                    <path d="M13.3686672,0.0843016125 L13.3686672,0.587504576 L16.5225287,0.587504576 L16.5225287,3.7411268 L17.0256838,3.7411268 L17.0256838,0.0843016125 L13.3686672,0.0843016125 Z" id="Shape"></path>
                                    <path d="M0.634133249,13.306291 L0.130930285,13.306291 L0.130930285,16.9632119 L3.78761188,16.9632119 L3.78761188,16.4600089 L0.634133249,16.4600089 L0.634133249,13.306291 Z" id="Shape"></path>
                                    <path d="M16.5172636,16.4600089 L13.3634499,16.4600089 L13.3634499,16.9632119 L17.0204665,16.9632119 L17.0204665,13.306291 L16.5172636,13.306291 L16.5172636,16.4600089 Z" id="Shape"></path>
                                </g>
                            </g>
                        </g>
                        <ellipse id="Oval-11-Copy" stroke-width="1.5" cx="17.0377996" cy="17.0377996" rx="17.0377996" ry="17.0377996"></ellipse>
                    </g>
                </g>
            </g>
        </g>
    </g>
</svg>