<?xml version="1.0" encoding="UTF-8" standalone="no"?>
<svg width="37px" height="37px" viewBox="0 0 37 37" version="1.1" xmlns="http://www.w3.org/2000/svg" xmlns:xlink="http://www.w3.org/1999/xlink" xmlns:sketch="http://www.bohemiancoding.com/sketch/ns">
    <!-- Generator: Sketch 3.3.3 (12072) - http://www.bohemiancoding.com/sketch -->
    <title>Oval 11 + medikamente</title>
    <desc>Created with Sketch.</desc>
    <defs>
        <path d="M24.6812595,17.1968848 L18.386641,10.9022663 C17.3650567,9.88081324 16.0260443,9.36998826 14.6871631,9.36998826 C13.3482819,9.36998826 12.0095319,9.88068199 10.9880132,10.9023319 C8.94484457,12.9453037 8.94484457,16.2579223 10.9880132,18.3008941 L17.2826317,24.5955126 C18.3040848,25.6169657 19.6431628,26.1278563 20.9819128,26.1278563 C22.3209908,26.1278563 23.6596095,25.6171625 24.6812595,24.5955126 C26.7243625,22.5525408 26.7243625,19.2398566 24.6812595,17.1968848 L24.6812595,17.1968848 Z M10.2431695,14.6015474 C10.2431695,13.4144568 10.705432,12.2984381 11.544907,11.4590944 C12.384185,10.6197507 13.5001381,10.1574882 14.6871631,10.1574882 C15.8742536,10.1574882 16.990338,10.6198163 17.8297473,11.45916 L20.6987409,14.3281537 L14.4139006,20.6131909 L11.5447757,17.744066 C10.705432,16.9046567 10.2431695,15.788638 10.2431695,14.6015474 L10.2431695,14.6015474 Z M24.1243658,24.0386188 C23.2849564,24.8780282 22.1690033,25.3402907 20.9819128,25.3402907 C19.7948878,25.3402907 18.6788691,24.8780282 17.8395254,24.0386188 L14.9707943,21.1698877 L21.2556346,14.8849161 L24.1244314,17.7537129 C24.9638407,18.5930566 25.4261032,19.7090753 25.4261032,20.8961659 C25.4261032,22.0832564 24.9638407,23.1992751 24.1243658,24.0386188 L24.1243658,24.0386188 Z" id="path-1"></path>
    </defs>
    <g id="Page-2" stroke="none" stroke-width="1" fill="none" fill-rule="evenodd" sketch:type="MSPage">
        <g id="ff-profil3-final-first" sketch:type="MSArtboardGroup" transform="translate(-68.000000, -621.000000)">
            <g id="footer-profil" sketch:type="MSLayerGroup" transform="translate(-2.000000, 612.000000)">
                <g id="pikto" transform="translate(70.000000, 9.000000)">
                    <g id="Oval-11-+-medikamente" transform="translate(0.476598, 0.452669)">
                        <g id="medicine10-copy" transform="translate(9.390045, 9.369923)"></g>
                        <g id="medikamente">
                            <g transform="translate(0.518900, 0.744454)"></g>
                            <ellipse id="Oval-11-Copy-2" stroke="#9CA299" stroke-width="1.5" sketch:type="MSShapeGroup" cx="17.812245" cy="18.0377996" rx="17.0377996" ry="17.0377996"></ellipse>
                            <g id="Shape" stroke-width="0.5" stroke="#9CA299">
                                <use fill="#9CA299" fill-rule="evenodd" sketch:type="MSShapeGroup" xlink:href="#path-1"></use>
                                <use fill="none" xlink:href="#path-1"></use>
                                <use fill="none" xlink:href="#path-1"></use>
                            </g>
                        </g>
                    </g>
                </g>
            </g>
        </g>
    </g>
</svg>